<svg xmlns="http://www.w3.org/2000/svg" viewBox="0 0 256 256" role="img" aria-label="Beat favicon">
  <rect width="256" height="256" rx="32" fill="#09090f" />

  <g transform="translate(8,0) skewX(-10)">
    <path
      fill="#ff2e67"
      d="M78 50h74c24 0 40 13 40 34 0 16-9 27-24 31 17 4 28 16 28 35 0 25-19 40-50 40H78V50zm60 57c10 0 16-4 16-12s-6-12-16-12h-24v24h24zm5 50c12 0 19-5 19-14 0-10-7-15-19-15h-29v29h29z"
    />

    <path
      fill="#ff7a9d"
      d="M164 60v47.5c-4.2-2.3-9.4-3.3-14.9-2.4-10.2 1.5-17.4 9.3-16.1 17.3 1.3 8.1 10.6 13.4 20.8 11.8 9.5-1.4 16.2-8.6 16.2-16.4V66.2L204 58v35.4c-4.2-2.3-9.4-3.3-14.9-2.4-10.2 1.5-17.4 9.3-16.1 17.3 1.3 8.1 10.6 13.4 20.8 11.8 9.5-1.4 16.2-8.6 16.2-16.4V50l-46 10z"
    />
  </g>
</svg>
